<svg version="1.1" xmlns="http://www.w3.org/2000/svg" xmlns:xlink="http://www.w3.org/1999/xlink" x="0px" y="0px" viewBox="0 0 237.5 115.1" enable-background="new 0 0 237.5 115.1" xml:space="preserve">
                            <path class="text" fill="#dc3545" d="M68.2,57H62V38.7h6.1c0.9,0,1.6,0.7,1.6,1.6v15C69.8,56.3,69.1,57,68.2,57 M68.6,82.5H62V61.9h6.6
	c0.9,0,1.6,0.7,1.6,1.6v17.4C70.3,81.8,69.6,82.5,68.6,82.5 M137.9,61.2h-6.1V38.8h6.1c0.9,0,1.6,0.7,1.6,1.6v19.1
	C139.6,60.4,138.8,61.2,137.9,61.2 M146.8,87.5l-4.4-22.3c1.9-1,3.2-2.9,3.2-5.2V39.5c0-3.2-2.6-5.8-5.8-5.8h-13.9v53.8h6V65.9h4.7
	l4,21.6H146.8z M70.4,87.5c3.2,0,5.8-2.6,5.8-5.8V63.4c0-2.7-2.9-3.8-3.7-4c0.7-0.2,3.2-1.3,3.2-4V39.5c0-3.2-2.6-5.8-5.8-5.8H56.1
	v53.8H70.4z M39.5,87.5v-5H28.6V63.1h9.1v-5.1h-9.1V38.7h10.9v-5H22.6v53.8H39.5z M214.9,87.5v-5H204V63.1h9.1v-5.1H204V38.7h10.9
	v-5H198v53.8H214.9z M109.7,87.5v-5H98.7V63.1h9.1v-5.1h-9.1V38.7h10.9v-5H92.8v53.8H109.7z M179.1,87.5v-5h-9.6V33.7h-6v53.8H179.1
	z"></path>
                            <path fill="#dc3545" d="M196.3,114.6v0.5v0.1l-0.1,0c-0.3,0-0.7,0-1.1,0c-0.3,0-0.5,0-0.6,0h0l-0.4,0c-0.4,0-1.1,0-1.4,0l-0.1,0V115
	v-0.5v-0.1l0.1,0c0.4,0,0.7-0.1,0.8-0.1c0.2,0,0.2-0.1,0.3-0.1c0,0,0-0.1,0-0.3c0-0.1,0-0.3,0-0.6v-6.7c-0.5,0-0.9,0-1.3,0
	c-0.3,0-0.5,0.1-0.6,0.1c-0.1,0.1-0.2,0.2-0.3,0.4c-0.1,0.2-0.2,0.6-0.3,1.1l0,0.1l-0.1,0l-0.5,0l-0.1,0l0-0.1c0-0.4,0-0.7,0-1.1
	c0-0.4,0-0.7,0.1-0.9c0-0.1,0-0.3,0.1-0.3h0c0.1-0.1,0.2-0.1,0.4-0.1h6.3c0.2,0,0.3,0,0.4,0.1c0.1,0.1,0.1,0.2,0.1,0.4
	c0,0.2,0,0.4,0,0.7c0,0.4,0,0.9,0,1.2v0.1l-0.1,0l-0.5,0l-0.1,0l0-0.1c-0.1-0.4-0.1-0.7-0.2-0.9c-0.1-0.2-0.1-0.4-0.2-0.5l0,0
	c-0.1-0.1-0.3-0.2-0.6-0.2c-0.3,0-0.8-0.1-1.5-0.1v6.7c0,0.3,0,0.4,0,0.6c0,0.1,0,0.2,0.1,0.3l0,0c0,0.1,0.1,0.1,0.3,0.1
	C195.6,114.4,195.9,114.5,196.3,114.6L196.3,114.6L196.3,114.6z M182.8,114.5v0.5v0.1l-0.1,0l-0.5,0c-0.5,0-0.8,0-1.1,0
	c-0.2,0-0.6,0-1.1,0l-0.5,0l-0.1,0V115v-0.5v-0.1l0.1,0c0.4,0,0.7-0.1,0.8-0.1c0.1,0,0.2-0.1,0.2-0.1c0.1-0.1,0.1-0.4,0.1-1.1
	c0-1.1,0-3.7,0-4.7l0-0.5h0c0-0.3,0-0.5,0-0.7c0-0.1,0-0.2-0.1-0.3l0,0c0-0.1-0.1-0.1-0.1-0.1v0c-0.1,0-0.1-0.1-0.2-0.1
	c-0.1,0-0.2,0-0.3-0.1c-0.1,0-0.3,0-0.4,0l-0.1,0v-0.1v-0.5V106l0.1,0c0.1,0,0.3,0,0.6,0c0.3,0,0.5,0,0.6,0c0.1,0,0.3,0,0.4,0
	c0.2,0,0.4,0,0.6,0l0,0l0,0c0.8,1.2,1.6,2.3,2.5,3.5c0.7,1,1.5,2.1,2.2,3.1c0-0.7,0-1.6,0-2.4c0-1.1,0-2,0-2.3v0c0-0.4,0-0.6,0-0.8
	c0-0.2,0-0.3-0.1-0.3c0,0-0.1-0.1-0.2-0.1c-0.2,0-0.4-0.1-0.8-0.1l-0.1,0v-0.1v-0.5V106l0.1,0l0.5,0c0.5,0,0.8,0,1,0
	c0.3,0,0.7,0,1.1,0l0.5,0l0.1,0v0.1v0.5v0.1l-0.1,0c-0.4,0-0.6,0.1-0.8,0.1c-0.1,0-0.2,0.1-0.3,0.1c0,0-0.1,0.1-0.1,0.3
	c0,0.2,0,0.4,0,0.8c0,0.6,0,1.4,0,2.2c0,0.8,0,1.6,0,2.5c0,0.4,0,0.8,0,1.3c0,0.4,0,0.8,0,1v0.1h-0.1h-0.6h0l0,0
	c-0.1-0.1-0.2-0.3-0.4-0.5c-0.6-0.9-1.8-2.7-4.7-6.7c0,1,0,2.3,0,3.4c0,1,0,1.8,0,2c0,0.4,0,0.7,0,0.8c0,0.1,0,0.2,0.1,0.3l0,0
	c0,0.1,0.1,0.1,0.3,0.1C182.1,114.4,182.3,114.4,182.8,114.5L182.8,114.5L182.8,114.5z M176.3,112.6l0.4,0.1l0.1,0l0,0.1
	c0,0.3-0.1,0.7-0.1,1.1c-0.1,0.3-0.1,0.6-0.2,0.8c-0.1,0.2-0.2,0.3-0.3,0.3c-0.1,0.1-0.3,0.1-0.6,0.1h-5.4h-0.1V115v-0.5v-0.1l0.1,0
	c0.3,0,0.5-0.1,0.7-0.1c0.2,0,0.3-0.1,0.3-0.1l0,0c0.1-0.1,0.1-0.3,0.1-0.8v-5.9c0-0.2,0-0.3,0-0.5c0-0.1,0-0.2-0.1-0.2l0,0l0,0
	c0-0.1-0.1-0.1-0.3-0.1c-0.2,0-0.4-0.1-0.8-0.1l-0.1,0v-0.1v-0.5V106h0.1h5.1c0.4,0,0.6,0,0.7,0.1c0.1,0.1,0.2,0.2,0.2,0.4
	c0,0.2,0,0.4,0.1,0.7c0,0.4,0,0.9,0,1v0.1l-0.1,0l-0.5,0l-0.1,0l0-0.1c-0.1-0.4-0.1-0.7-0.2-0.9c-0.1-0.2-0.1-0.3-0.2-0.4
	c-0.1-0.1-0.3-0.1-0.5-0.2c-0.3,0-0.6,0-1.2,0c-0.2,0-0.4,0-0.6,0c-0.2,0-0.3,0-0.5,0v3.2h0.1c0.7,0,1.1,0,1.4-0.1
	c0.3,0,0.4-0.1,0.5-0.2c0,0,0.1-0.1,0.1-0.3c0-0.1,0.1-0.3,0.1-0.6l0-0.1h0.1h0.5h0.1l0,0.1c0,0.3,0,1,0,1.4l0,0.6
	c0,0.3,0,0.6,0,0.9l0,0.1h-0.1h-0.5h-0.1l0-0.1c0-0.3-0.1-0.5-0.1-0.6c0-0.1-0.1-0.2-0.1-0.3c-0.1-0.1-0.3-0.1-0.6-0.2
	c-0.3,0-0.8,0-1.4,0h-0.1v3c0,0.2,0,0.3,0.1,0.4v0c0,0.1,0.1,0.1,0.2,0.1c0.2,0,0.3,0.1,0.5,0.1c0.2,0,0.4,0,0.5,0
	c0.6,0,1,0,1.3-0.1c0.3-0.1,0.4-0.1,0.5-0.2c0.1-0.1,0.2-0.3,0.3-0.5C176,113.3,176.1,113,176.3,112.6L176.3,112.6L176.3,112.6z
	 M160.2,114.5v0.5v0.1l-0.1,0c-0.3,0-0.6,0-0.9,0c-0.2,0-0.4,0-0.6,0c-0.1,0-0.3,0-0.6,0c-0.3,0-0.7,0-1.1,0l-0.1,0V115v-0.5v-0.1
	l0.1,0c0.3,0,0.5,0,0.7-0.1c0.2,0,0.3-0.1,0.3-0.1h0c0.1-0.1,0.1-0.1,0.1-0.3c0-0.2,0-0.4,0.1-0.8v0l0-0.5c0.2-4.6,0.2-5.2,0.2-5.4
	c0-0.1,0-0.2,0-0.3c0-0.1,0-0.1-0.1-0.1c0,0-0.1-0.1-0.2-0.1c-0.1,0-0.4-0.1-0.8-0.1l-0.1,0v-0.1v-0.5V106l0.1,0c0.6,0,1,0,1.3,0
	c0.2,0,0.4,0,0.6,0c0.2,0,0.4,0,0.5,0l0.1,0l0,0c0.2,0.5,0.4,1.1,0.9,2.5c0.3,1,0.8,2.4,1.6,4.4c0.9-2.5,1.5-4,1.8-5
	c0.4-1,0.6-1.5,0.7-1.9l0,0l0.1,0c0.3,0,0.9,0,1.2,0c0.1,0,0.4,0,0.7,0c0.3,0,0.5,0,0.7,0l0.1,0v0.1v0.5v0.1l-0.1,0
	c-0.4,0-0.7,0.1-0.9,0.1c-0.1,0-0.2,0.1-0.2,0.1l0,0l0,0c0,0-0.1,0.1-0.1,0.2c0,0.1,0,0.3,0,0.5c0,0.1,0,0.3,0,1.1
	c0,0.8,0,2.1,0,4.7c0,0.4,0,0.6,0,0.7c0,0.1,0,0.2,0.1,0.2l0,0l0,0c0,0.1,0.1,0.1,0.2,0.1c0.2,0,0.4,0.1,0.9,0.1l0.1,0v0.1v0.5v0.1
	l-0.1,0c-0.3,0-0.8,0-1.1,0c-0.3,0-0.6,0-0.8,0c-0.3,0-0.6,0-1,0l-0.6,0l-0.1,0V115v-0.5v-0.1l0.1,0c0.4,0,0.7-0.1,0.8-0.1
	c0.1,0,0.2-0.1,0.2-0.1c0,0,0-0.1,0.1-0.2c0-0.1,0-0.2,0-0.4l0-1.4c0-0.9,0-2.3,0-4.5c-0.1,0.4-0.3,0.8-0.6,1.6
	c-0.4,1.1-1,2.8-2.1,5.6l0,0h0h-0.5h0l0,0c-1-2.9-1.6-4.5-2-5.5c-0.3-0.8-0.4-1.2-0.5-1.6c0,0.8-0.1,1.8-0.1,2.7
	c0,1.5-0.1,2.9-0.1,3.2c0,0.1,0,0.3,0,0.4v0c0,0.1,0,0.1,0.1,0.2l0,0c0,0,0.1,0.1,0.2,0.1C159.4,114.4,159.7,114.4,160.2,114.5
	L160.2,114.5L160.2,114.5z M153.8,112.6l0.4,0.1l0.1,0l0,0.1c0,0.3-0.1,0.7-0.1,1.1c-0.1,0.3-0.1,0.6-0.2,0.8
	c-0.1,0.2-0.2,0.3-0.3,0.3c-0.1,0.1-0.3,0.1-0.6,0.1h-5.4h-0.1V115v-0.5v-0.1l0.1,0c0.3,0,0.5-0.1,0.7-0.1c0.2,0,0.3-0.1,0.3-0.1
	l0,0c0.1-0.1,0.1-0.3,0.1-0.8v-5.9c0-0.2,0-0.3,0-0.5c0-0.1,0-0.2-0.1-0.2l0,0l0,0c0-0.1-0.1-0.1-0.3-0.1c-0.2,0-0.4-0.1-0.8-0.1
	l-0.1,0v-0.1v-0.5V106h0.1h5.1c0.4,0,0.6,0,0.7,0.1c0.1,0.1,0.2,0.2,0.2,0.4h0c0,0.2,0,0.4,0.1,0.7c0,0.4,0,0.9,0,1v0.1l-0.1,0
	l-0.5,0l-0.1,0l0-0.1c-0.1-0.4-0.1-0.7-0.2-0.9c-0.1-0.2-0.1-0.3-0.2-0.4c-0.1-0.1-0.3-0.1-0.5-0.2c-0.3,0-0.6,0-1.2,0
	c-0.2,0-0.4,0-0.6,0c-0.2,0-0.3,0-0.5,0v3.2h0.1c0.7,0,1.1,0,1.4-0.1c0.3,0,0.4-0.1,0.5-0.2c0,0,0.1-0.1,0.1-0.3
	c0-0.1,0.1-0.3,0.1-0.6l0-0.1h0.1h0.5h0.1l0,0.1c0,0.3,0,1,0,1.4l0,0.6c0,0.3,0,0.6,0,0.9l0,0.1h-0.1h-0.5h-0.1l0-0.1
	c0-0.3-0.1-0.5-0.1-0.6c0-0.1-0.1-0.2-0.1-0.3c-0.1-0.1-0.3-0.1-0.5-0.2c-0.3,0-0.7,0-1.4,0H150v3c0,0.2,0,0.3,0.1,0.4v0
	c0,0.1,0.1,0.1,0.2,0.1c0.2,0,0.3,0.1,0.5,0.1c0.2,0,0.4,0,0.5,0c0.6,0,1,0,1.3-0.1c0.3-0.1,0.4-0.1,0.5-0.2
	c0.1-0.1,0.2-0.3,0.3-0.5C153.5,113.3,153.6,113,153.8,112.6L153.8,112.6L153.8,112.6z M144.7,112.6l0.5,0.1l0.1,0l0,0.1
	c0,0.3-0.1,0.6-0.1,1c0,0.3-0.1,0.6-0.2,0.8c-0.1,0.2-0.1,0.4-0.3,0.5c-0.1,0.1-0.3,0.1-0.6,0.1h-5.5h-0.1V115v-0.5v-0.1l0.1,0
	c0.3,0,0.5,0,0.7-0.1c0.2,0,0.3-0.1,0.3-0.1l0,0c0.1-0.1,0.1-0.4,0.1-0.8v-5.9c0-0.3,0-0.5,0-0.6c0-0.1,0-0.1-0.1-0.2
	c0,0-0.1-0.1-0.3-0.1c-0.2,0-0.4-0.1-0.7-0.1l-0.1,0v-0.1v-0.5V106l0.1,0c0.3,0,0.7,0,1,0c0.3,0,0.6,0,0.7,0c0.2,0,0.5,0,0.8,0
	c0.3,0,0.6,0,1,0l0.1,0v0.1v0.5v0.1l-0.1,0c-0.3,0-0.5,0-0.7,0.1c-0.2,0-0.3,0.1-0.3,0.1c0,0-0.1,0.1-0.1,0.2c0,0.1,0,0.3,0,0.5v6.2
	c0,0.2,0,0.3,0.1,0.4c0,0.1,0.1,0.1,0.2,0.1c0.2,0,0.3,0.1,0.5,0.1c0.2,0,0.4,0,0.5,0c0.6,0,1,0,1.3-0.1c0.3-0.1,0.5-0.2,0.6-0.3
	c0.1-0.1,0.2-0.2,0.3-0.5C144.4,113.3,144.5,113,144.7,112.6L144.7,112.6L144.7,112.6z M135.4,112.6l0.4,0.1l0.1,0l0,0.1
	c0,0.3-0.1,0.7-0.1,1.1c-0.1,0.3-0.1,0.6-0.2,0.8c-0.1,0.2-0.2,0.3-0.3,0.3c-0.1,0.1-0.3,0.1-0.6,0.1h-5.4h-0.1V115v-0.5v-0.1l0.1,0
	c0.3,0,0.5-0.1,0.7-0.1c0.2,0,0.3-0.1,0.3-0.1l0,0c0.1-0.1,0.1-0.3,0.1-0.8v-5.9c0-0.2,0-0.3,0-0.5c0-0.1,0-0.2-0.1-0.2l0,0l0,0
	c0-0.1-0.1-0.1-0.3-0.1c-0.2,0-0.4-0.1-0.8-0.1l-0.1,0v-0.1v-0.5V106h0.1h5.1c0.4,0,0.6,0,0.7,0.1c0.1,0.1,0.2,0.2,0.2,0.4
	c0,0.2,0,0.4,0.1,0.7c0,0.4,0,0.9,0,1v0.1l-0.1,0l-0.5,0l-0.1,0l0-0.1c-0.1-0.4-0.1-0.7-0.2-0.9c-0.1-0.2-0.1-0.3-0.2-0.4
	c-0.1-0.1-0.3-0.1-0.5-0.2c-0.3,0-0.6,0-1.2,0c-0.2,0-0.4,0-0.6,0c-0.2,0-0.3,0-0.5,0v3.2h0.1c0.7,0,1.1,0,1.4-0.1
	c0.3,0,0.4-0.1,0.5-0.2c0,0,0.1-0.1,0.1-0.3c0-0.1,0.1-0.3,0.1-0.6l0-0.1h0.1h0.5h0.1l0,0.1c0,0.3,0,1,0,1.4l0,0.6
	c0,0.3,0,0.6,0,0.9l0,0.1h-0.1h-0.5h-0.1l0-0.1c0-0.3-0.1-0.5-0.1-0.6c0-0.1-0.1-0.2-0.1-0.3c-0.1-0.1-0.3-0.1-0.5-0.2
	c-0.3,0-0.8,0-1.4,0h-0.1v3c0,0.2,0,0.3,0.1,0.4v0c0,0.1,0.1,0.1,0.2,0.1c0.2,0,0.3,0.1,0.5,0.1c0.2,0,0.4,0,0.5,0
	c0.6,0,1,0,1.3-0.1c0.3-0.1,0.4-0.1,0.5-0.2c0.1-0.1,0.2-0.3,0.3-0.5C135.1,113.3,135.2,113,135.4,112.6L135.4,112.6L135.4,112.6z
	 M122.1,112.6l0.5,0.1l0.1,0l0,0.1c0,0.3-0.1,0.6-0.1,1c0,0.3-0.1,0.6-0.2,0.8c-0.1,0.2-0.1,0.4-0.3,0.5c-0.1,0.1-0.3,0.1-0.6,0.1
	H116H116V115v-0.5v-0.1l0.1,0c0.3,0,0.5,0,0.7-0.1c0.2,0,0.3-0.1,0.3-0.1l0,0c0.1-0.1,0.1-0.4,0.1-0.8v-5.9c0-0.3,0-0.5,0-0.6
	c0-0.1,0-0.1-0.1-0.2h0c0,0-0.1-0.1-0.3-0.1c-0.2,0-0.4-0.1-0.7-0.1l-0.1,0v-0.1v-0.5V106l0.1,0c0.3,0,0.7,0,1,0c0.3,0,0.6,0,0.7,0
	c0.2,0,0.5,0,0.8,0c0.3,0,0.6,0,1,0l0.1,0v0.1v0.5v0.1l-0.1,0c-0.3,0-0.5,0-0.7,0.1c-0.2,0-0.3,0.1-0.3,0.1c0,0-0.1,0.1-0.1,0.2
	c0,0.1,0,0.3,0,0.5v6.2c0,0.2,0,0.3,0.1,0.4c0,0.1,0.1,0.1,0.2,0.1c0.2,0,0.3,0.1,0.5,0.1c0.2,0,0.4,0,0.5,0c0.6,0,1,0,1.3-0.1
	c0.3-0.1,0.5-0.2,0.6-0.3c0.1-0.1,0.2-0.2,0.3-0.5C121.8,113.3,122,113,122.1,112.6L122.1,112.6L122.1,112.6z M109.1,108.9
	c-0.2,0.5-0.4,1.2-0.8,2.2h2.2c-0.3-1-0.6-1.7-0.7-2.2c-0.1-0.4-0.2-0.8-0.3-1.1C109.4,108.1,109.3,108.5,109.1,108.9 M108.7,114.5
	v0.5v0.1l-0.1,0c-0.4,0-0.8,0-1.1,0c-0.3,0-0.5,0-0.7,0c-0.2,0-0.4,0-0.7,0c-0.3,0-0.6,0-0.9,0l-0.1,0V115v-0.5v-0.1l0.1,0
	c0.3,0,0.4-0.1,0.5-0.1c0.1,0,0.2-0.1,0.2-0.1l0,0c0.1-0.1,0.2-0.2,0.3-0.4c0.1-0.2,0.2-0.5,0.4-1l2.5-6.8l0,0h0h0.7h0l0,0l2.3,6.9
	c0.1,0.4,0.2,0.7,0.3,0.9c0.1,0.2,0.2,0.3,0.3,0.4l0,0c0.1,0.1,0.3,0.1,0.8,0.2l0,0l0.1,0v0.1v0.5v0.1l-0.1,0l-0.3,0
	c-0.5,0-0.9,0-1.2,0c-0.2,0-0.5,0-0.8,0c-0.4,0-0.8,0-1.2,0l-0.1,0V115v-0.5v-0.1l0.1,0c0.5,0,0.8-0.1,0.9-0.2
	c0.1-0.1,0.2-0.1,0.2-0.2c0-0.1,0-0.3-0.1-0.5c-0.1-0.2-0.1-0.4-0.2-0.7v0l-0.3-1.1h-2.7l-0.4,1.1c-0.1,0.4-0.2,0.6-0.3,0.8
	c0,0.2-0.1,0.3-0.1,0.4c0,0.1,0,0.2,0.2,0.2v0C107.8,114.4,108.1,114.4,108.7,114.5L108.7,114.5L108.7,114.5z M102.5,114.6v0.5v0.1
	l-0.1,0c-0.3,0-0.7,0-1.1,0c-0.3,0-0.5,0-0.6,0h0l-0.4,0c-0.4,0-1.1,0-1.4,0l-0.1,0V115v-0.5v-0.1l0.1,0c0.4,0,0.7-0.1,0.8-0.1
	c0.2,0,0.2-0.1,0.3-0.1l0,0c0,0,0-0.1,0-0.3c0-0.1,0-0.3,0-0.6v-6.7c-0.5,0-0.9,0-1.3,0c-0.3,0-0.5,0.1-0.6,0.1
	c-0.1,0.1-0.2,0.2-0.3,0.4c-0.1,0.2-0.2,0.6-0.3,1.1l0,0.1l-0.1,0l-0.5,0l-0.1,0l0-0.1c0-0.4,0-0.7,0-1.1c0-0.4,0-0.7,0.1-0.9
	c0-0.1,0-0.3,0.1-0.3c0.1-0.1,0.2-0.1,0.4-0.1h6.3c0.2,0,0.3,0,0.4,0.1c0.1,0.1,0.1,0.2,0.1,0.4c0,0.2,0,0.4,0,0.7
	c0,0.4,0,0.9,0,1.2v0.1l-0.1,0l-0.5,0l-0.1,0l0-0.1c-0.1-0.4-0.1-0.7-0.2-0.9c-0.1-0.2-0.1-0.4-0.2-0.5l0,0
	c-0.1-0.1-0.3-0.2-0.6-0.2c-0.3,0-0.8-0.1-1.5-0.1v6.7c0,0.3,0,0.4,0,0.6c0,0.1,0,0.2,0.1,0.3l0,0c0,0.1,0.1,0.1,0.3,0.1
	C101.8,114.4,102,114.5,102.5,114.6L102.5,114.6L102.5,114.6z M94.1,112.6l0.4,0.1l0.1,0l0,0.1c0,0.3-0.1,0.7-0.1,1.1
	c-0.1,0.3-0.1,0.6-0.2,0.8c-0.1,0.2-0.2,0.3-0.3,0.3c-0.1,0.1-0.3,0.1-0.6,0.1h-5.4h-0.1V115v-0.5v-0.1l0.1,0c0.3,0,0.5-0.1,0.7-0.1
	c0.2,0,0.3-0.1,0.3-0.1l0,0c0.1-0.1,0.1-0.3,0.1-0.8v-5.9c0-0.2,0-0.3,0-0.5c0-0.1,0-0.2-0.1-0.2l0,0l0,0c0-0.1-0.1-0.1-0.3-0.1
	c-0.2,0-0.4-0.1-0.8-0.1l-0.1,0v-0.1v-0.5V106h0.1H93c0.4,0,0.6,0,0.7,0.1c0.1,0.1,0.2,0.2,0.2,0.4h0c0,0.2,0,0.4,0.1,0.7
	c0,0.4,0,0.9,0,1v0.1l-0.1,0l-0.5,0l-0.1,0l0-0.1c-0.1-0.4-0.1-0.7-0.2-0.9c-0.1-0.2-0.1-0.3-0.2-0.4c-0.1-0.1-0.3-0.1-0.5-0.2
	c-0.3,0-0.6,0-1.2,0c-0.2,0-0.4,0-0.6,0c-0.2,0-0.3,0-0.5,0v3.2h0.1c0.7,0,1.1,0,1.4-0.1c0.3,0,0.4-0.1,0.5-0.2c0,0,0.1-0.1,0.1-0.3
	c0-0.1,0.1-0.3,0.1-0.6l0-0.1h0.1H93h0.1l0,0.1c0,0.3,0,1,0,1.4l0,0.6c0,0.3,0,0.6,0,0.9l0,0.1H93h-0.5h-0.1l0-0.1
	c0-0.3-0.1-0.5-0.1-0.6c0-0.1-0.1-0.2-0.1-0.3c-0.1-0.1-0.3-0.1-0.5-0.2c-0.3,0-0.7,0-1.4,0h-0.1v3c0,0.2,0,0.3,0.1,0.4v0
	c0,0.1,0.1,0.1,0.2,0.1c0.2,0,0.3,0.1,0.5,0.1c0.2,0,0.4,0,0.5,0c0.6,0,1,0,1.3-0.1c0.3-0.1,0.4-0.1,0.5-0.2
	c0.1-0.1,0.2-0.3,0.3-0.5C93.8,113.3,93.9,113,94.1,112.6L94.1,112.6L94.1,112.6z M78,114.5v0.5v0.1l-0.1,0c-0.3,0-0.6,0-0.9,0
	c-0.2,0-0.4,0-0.6,0c-0.1,0-0.3,0-0.6,0c-0.3,0-0.7,0-1.1,0l-0.1,0V115v-0.5v-0.1l0.1,0c0.3,0,0.5,0,0.7-0.1c0.2,0,0.3-0.1,0.3-0.1
	c0.1-0.1,0.1-0.1,0.1-0.3c0-0.2,0-0.4,0.1-0.8v0l0-0.5c0.2-4.6,0.2-5.2,0.2-5.4c0-0.1,0-0.2,0-0.3c0-0.1,0-0.1-0.1-0.1
	c0,0-0.1-0.1-0.2-0.1c-0.1,0-0.4-0.1-0.8-0.1l-0.1,0v-0.1v-0.5V106l0.1,0c0.6,0,1,0,1.3,0c0.2,0,0.4,0,0.6,0c0.2,0,0.4,0,0.5,0
	l0.1,0l0,0c0.2,0.5,0.4,1.1,0.9,2.5c0.3,1,0.8,2.4,1.6,4.4c0.9-2.5,1.5-4,1.8-5c0.4-1,0.5-1.5,0.7-1.9l0,0l0.1,0c0.3,0,0.9,0,1.2,0
	c0.1,0,0.4,0,0.7,0h0c0.3,0,0.5,0,0.7,0l0.1,0v0.1v0.5v0.1l-0.1,0c-0.4,0-0.7,0.1-0.9,0.1c-0.1,0-0.2,0.1-0.2,0.1l0,0l0,0
	c0,0-0.1,0.1-0.1,0.2c0,0.1,0,0.3,0,0.5c0,0.1,0,0.3,0,1.1c0,0.8,0,2.1,0,4.7c0,0.4,0,0.6,0,0.7c0,0.1,0,0.2,0.1,0.2l0,0l0,0
	c0,0.1,0.1,0.1,0.2,0.1c0.2,0,0.4,0.1,0.9,0.1l0.1,0v0.1v0.5v0.1l-0.1,0c-0.3,0-0.8,0-1.1,0c-0.3,0-0.6,0-0.8,0c-0.3,0-0.6,0-1,0h0
	l-0.6,0l-0.1,0V115v-0.5v-0.1l0.1,0c0.4,0,0.7-0.1,0.8-0.1c0.1,0,0.2-0.1,0.2-0.1c0,0,0-0.1,0.1-0.2c0-0.1,0-0.2,0-0.4l0-1.4l0-4.5
	c-0.1,0.4-0.3,0.8-0.6,1.6c-0.4,1.1-1,2.8-2.1,5.6l0,0h0h-0.5h0l0,0c-1-2.9-1.6-4.5-2-5.5c-0.3-0.8-0.4-1.2-0.5-1.6
	c0,0.8-0.1,1.8-0.1,2.7c0,1.5-0.1,2.9-0.1,3.2c0,0.1,0,0.3,0,0.4v0c0,0.1,0,0.1,0.1,0.2l0,0c0,0,0.1,0.1,0.2,0.1
	C77.2,114.4,77.4,114.4,78,114.5L78,114.5L78,114.5z M67.1,112.6l0.4,0.1l0.1,0l0,0.1c0,0.3-0.1,0.7-0.1,1.1
	c-0.1,0.3-0.1,0.6-0.2,0.8c-0.1,0.2-0.2,0.3-0.3,0.3c-0.1,0.1-0.3,0.1-0.6,0.1h-5.4h-0.1V115v-0.5v-0.1l0.1,0c0.3,0,0.5-0.1,0.7-0.1
	c0.2,0,0.3-0.1,0.3-0.1l0,0c0.1-0.1,0.1-0.3,0.1-0.8v-5.9c0-0.2,0-0.3,0-0.5c0-0.1,0-0.2-0.1-0.2l0,0l0,0c0-0.1-0.1-0.1-0.3-0.1
	c-0.2,0-0.4-0.1-0.8-0.1l-0.1,0v-0.1v-0.5V106h0.1H66c0.4,0,0.6,0,0.7,0.1c0.1,0.1,0.2,0.2,0.2,0.4c0,0.2,0,0.4,0.1,0.7
	c0,0.4,0,0.9,0,1v0.1l-0.1,0l-0.5,0l-0.1,0l0-0.1c-0.1-0.4-0.1-0.7-0.2-0.9c-0.1-0.2-0.1-0.3-0.2-0.4c-0.1-0.1-0.3-0.1-0.5-0.2
	c-0.3,0-0.6,0-1.2,0c-0.2,0-0.4,0-0.6,0c-0.2,0-0.3,0-0.5,0v3.2h0.1c0.7,0,1.1,0,1.4-0.1c0.3,0,0.4-0.1,0.5-0.2c0,0,0.1-0.1,0.1-0.3
	c0-0.1,0.1-0.3,0.1-0.6l0-0.1h0.1H66h0.1l0,0.1c0,0.3,0,1,0,1.4l0,0.6c0,0.3,0,0.6,0,0.9l0,0.1H66h-0.5h-0.1l0-0.1
	c0-0.3-0.1-0.5-0.1-0.6c0-0.1-0.1-0.2-0.1-0.3c-0.1-0.1-0.3-0.1-0.5-0.2c-0.3,0-0.7,0-1.4,0h-0.1v3c0,0.2,0,0.3,0.1,0.4v0
	c0,0.1,0.1,0.1,0.2,0.1c0.2,0,0.3,0.1,0.5,0.1c0.2,0,0.4,0,0.5,0c0.6,0,1,0,1.3-0.1c0.3-0.1,0.4-0.1,0.5-0.2
	c0.1-0.1,0.2-0.3,0.3-0.5C66.8,113.3,66.9,113,67.1,112.6L67.1,112.6L67.1,112.6z M52.8,114.5v0.5v0.1l-0.1,0c-0.3,0-0.7,0-1,0
	c-0.3,0-0.6,0-0.8,0c-0.2,0-0.4,0-0.7,0c-0.3,0-0.7,0-1,0l-0.1,0V115v-0.5v-0.1l0.1,0c0.4,0,0.6-0.1,0.8-0.1c0.1,0,0.2-0.1,0.3-0.1
	l0,0c0,0,0-0.1,0.1-0.2c0-0.1,0-0.3,0-0.6v-5.9c0-0.2,0-0.4,0-0.5c0-0.1,0-0.2-0.1-0.2l0,0l0,0c0,0-0.1-0.1-0.2-0.1
	c-0.2,0-0.4-0.1-0.8-0.1l-0.1,0v-0.1v-0.5V106l0.1,0c0.3,0,0.7,0,1,0c0.3,0,0.6,0,0.7,0c0.2,0,0.5,0,0.8,0c0.3,0,0.7,0,1,0l0.1,0
	v0.1v0.5v0.1l-0.1,0c-0.4,0-0.7,0.1-0.9,0.1c-0.1,0-0.2,0.1-0.2,0.1c0,0,0,0.1-0.1,0.2c0,0.1,0,0.3,0,0.5v2.4h4.2v-2.3
	c0-0.2,0-0.4,0-0.5c0-0.1,0-0.2-0.1-0.2c0,0-0.1-0.1-0.2-0.1c-0.2,0-0.4-0.1-0.8-0.1l-0.1,0v-0.1v-0.5V106l0.1,0c0.3,0,0.7,0,1,0
	c0.3,0,0.6,0,0.7,0c0.2,0,0.5,0,0.8,0c0.3,0,0.7,0,1,0l0.1,0v0.1v0.5v0.1l-0.1,0c-0.4,0-0.7,0.1-0.8,0.1c-0.1,0-0.2,0.1-0.2,0.1
	c0,0,0,0.1-0.1,0.2c0,0.1,0,0.3,0,0.5v5.9c0,0.3,0,0.5,0,0.6c0,0.1,0,0.1,0.1,0.2l0,0c0,0,0.1,0.1,0.3,0.1c0.2,0,0.4,0.1,0.8,0.1
	l0.1,0v0.1v0.5v0.1l-0.1,0c-0.3,0-0.6,0-1,0c-0.3,0-0.6,0-0.8,0c-0.2,0-0.4,0-0.7,0c-0.3,0-0.7,0-1,0l-0.1,0V115v-0.5v-0.1l0.1,0
	c0.4,0,0.6-0.1,0.8-0.1c0.1,0,0.2-0.1,0.3-0.1l0,0c0,0,0.1-0.1,0.1-0.2c0-0.1,0-0.3,0-0.6v-2.7h-4.2v2.7c0,0.3,0,0.5,0,0.6
	c0,0.1,0,0.1,0.1,0.2c0,0,0.1,0.1,0.3,0.1C52.1,114.4,52.3,114.4,52.8,114.5L52.8,114.5L52.8,114.5z M44.9,114.6v0.5v0.1l-0.1,0
	c-0.3,0-0.7,0-1.1,0c-0.3,0-0.5,0-0.6,0h0l-0.4,0c-0.4,0-1.1,0-1.4,0l-0.1,0V115v-0.5v-0.1l0.1,0c0.4,0,0.7-0.1,0.8-0.1
	c0.2,0,0.2-0.1,0.3-0.1l0,0c0,0,0-0.1,0-0.3c0-0.1,0-0.3,0-0.6v-6.7c-0.5,0-0.9,0-1.3,0c-0.3,0-0.5,0.1-0.6,0.1
	c-0.1,0.1-0.2,0.2-0.3,0.4c-0.1,0.2-0.2,0.6-0.3,1.1l0,0.1l-0.1,0l-0.5,0l-0.1,0l0-0.1c0-0.4,0-0.7,0-1.1c0-0.4,0-0.7,0.1-0.9
	c0-0.1,0-0.3,0.1-0.3c0.1-0.1,0.2-0.1,0.4-0.1h6.3c0.2,0,0.3,0,0.4,0.1c0.1,0.1,0.1,0.2,0.1,0.4c0,0.2,0,0.4,0,0.7
	c0,0.4,0,0.9,0,1.2v0.1l-0.1,0l-0.5,0l-0.1,0l0-0.1c-0.1-0.4-0.1-0.7-0.2-0.9c-0.1-0.2-0.1-0.4-0.2-0.5l0,0
	c-0.1-0.1-0.3-0.2-0.6-0.2c-0.3,0-0.8-0.1-1.5-0.1v6.7c0,0.3,0,0.4,0,0.6c0,0.1,0,0.2,0.1,0.3l0,0c0,0.1,0.1,0.1,0.3,0.1
	C44.2,114.4,44.4,114.5,44.9,114.6L44.9,114.6L44.9,114.6z"></path>
                            <path class="text" fill-rule="evenodd" clip-rule="evenodd" fill="#dc3545" d="M3.7,56.9c-2,0-3.7,1.6-3.7,3.7c0,2,1.6,3.7,3.7,3.7
	c2,0,3.7-1.6,3.7-3.7C7.4,58.6,5.7,56.9,3.7,56.9 M233.9,56.9c-2,0-3.7,1.6-3.7,3.7c0,2,1.6,3.7,3.7,3.7c2,0,3.7-1.6,3.7-3.7
	C237.5,58.6,235.9,56.9,233.9,56.9"></path>
                            <path class="bigorna" fill-rule="evenodd" clip-rule="evenodd" fill="#dc3545" d="M122.2,18.6c0-0.3,0-0.5,0-0.8c0-0.3,0-0.6,0-0.8
	c0-0.2,0-0.4-0.1-0.5c0-0.2-0.1-0.3-0.1-0.5c0-0.1-0.1-0.3-0.2-0.4c-0.1-0.1-0.1-0.3-0.2-0.4c-0.1-0.1-0.2-0.3-0.3-0.4
	c-0.1-0.1-0.2-0.3-0.4-0.4h0c-0.2-0.2-0.4-0.4-0.6-0.5c-0.2-0.2-0.4-0.3-0.6-0.5c-0.2-0.2-0.4-0.3-0.6-0.5c-0.2-0.1-0.4-0.3-0.6-0.4
	c-0.2-0.1-0.4-0.2-0.6-0.3c-0.2-0.1-0.4-0.1-0.6-0.2c-0.2-0.1-0.4-0.1-0.5-0.1c-0.2,0-0.3,0-0.5,0c-0.1,0-0.2,0-0.2,0
	c-0.1,0-0.2,0-0.2,0c-0.1,0-0.2,0-0.2,0c-0.1,0-0.1,0-0.2,0.1h0c-0.1,0-0.1,0-0.2,0.1c-0.1,0-0.1,0.1-0.2,0.1
	c-0.1,0-0.1,0.1-0.2,0.1c-0.1,0-0.1,0.1-0.2,0.1c-0.2,0.2-0.5,0.3-0.7,0.5c-0.2,0.2-0.4,0.3-0.7,0.5c-0.2,0.2-0.4,0.3-0.6,0.5
	c-0.2,0.2-0.4,0.3-0.5,0.5c-0.2,0.1-0.3,0.3-0.4,0.4c-0.1,0.1-0.2,0.3-0.4,0.4c-0.1,0.1-0.2,0.2-0.3,0.4c-0.1,0.1-0.1,0.2-0.2,0.3
	c0,0.1-0.1,0.1-0.1,0.3c0,0.1-0.1,0.3-0.1,0.4c-0.1,0.6-0.1,1.3-0.1,1.3v0v0l0,0.2l0,0.5l0,0c1.9-1.2,3.9-1.8,5.9-1.8
	C118.4,16.9,120.3,17.5,122.2,18.6L122.2,18.6z"></path>
                            <path class="bigorna" fill-rule="evenodd" clip-rule="evenodd" fill="#dc3545" d="M138.6,1.6c0-0.1-0.1-0.1-0.2-0.2c-0.1,0-0.2-0.1-0.3-0.1h-12.7v0
	c0-0.1-0.1-0.2-0.1-0.3c-0.1-0.1-0.2-0.1-0.4-0.1h-1.2c-0.3,0-0.4-0.1-0.4-0.3c-0.1-0.2-0.1-0.3-0.1-0.4h0v0V0h-0.2H99.2h-0.2v0.2
	v1.2l0,0c0,0.1,0.1,0.3,0.1,0.4c0.1,0.1,0.1,0.1,0.2,0.1l0.1,0.4v0c0,0,0.1,0.7,0.7,0.8h0c0,0,0.1,0,0.2,0
	c1.5,0.2,10.7,1.2,11.8,6.5l0,0c0.1,0.4,0.2,0.8,0.1,1.2c0,1.8-2.4,2.4-3.9,2.7l-0.1,0l-0.1,0.1l-2.3,2.3l-0.1,0.1v0.1v2.6v0.2h0.2
	h4.4h0.1l0,0l0,0h-0.1h-0.1l0-0.5l0-0.2v0v0c0,0,0-0.3,0-0.6c0-0.2,0-0.4-0.1-0.5c0-0.1-0.1-0.3-0.1-0.4c0-0.1-0.1-0.1-0.1-0.2
	c0,0-0.1-0.1-0.2-0.1c-0.1,0-0.3-0.1-0.5-0.1c-0.3,0-0.5-0.1-0.8-0.1c-0.3,0-0.6,0-0.9,0h0l-1.2,0l0-0.2l1.2-0.1h0
	c0.5,0,1-0.1,1.5-0.2c0.5-0.1,0.9-0.3,1.4-0.5c0.4-0.2,0.8-0.5,1.1-0.7c0.3-0.3,0.7-0.5,1-0.8h0l0,0l0,0c0.5-0.5,1.1-0.9,1.6-1.3
	c0.6-0.3,1.2-0.6,2-0.6c2.1,0,3.8,1.6,4.7,2.5l0,0l0,0l0,0l0.2,0.2v0c0.1,0.1,0.2,0.2,0.2,0.2l0,0l0,0l0,0c0.3,0.3,0.7,0.6,1.1,0.8
	c0.8,0.4,2.2,0.4,3.3,0.4c0.2,0,0.5,0,0.7,0V16c-0.1,0-0.3,0-0.6,0c-1,0-2.8,0-3.2,0.3c-0.1,0.1-0.2,0.5-0.3,1
	c0,0.4-0.1,0.9-0.1,1.4h-0.1h-0.1l0,0l0,0h0.1h4.3h0.2v-0.2v-2.6v-0.1l-0.1-0.1l-2.1-2.4l-0.1-0.1l-0.1,0c0,0-3.1-0.3-3.5-1.9
	c-0.1-0.6,0-1.4,0.4-2c0.3-0.5,0.8-0.9,1.6-1.1l2.3-0.2h0c2.6-0.1,5.1-0.7,7.2-1.7c2.2-1,4.2-2.4,5.9-4.3c0.1-0.1,0.1-0.1,0.1-0.2
	C138.6,1.7,138.6,1.6,138.6,1.6 M122.5,1.5v2.5c0,0,0-2.5-2.3-2.5H99.8c-0.1,0-0.3-0.1-0.3-0.2V0.6h23V1.5z M125,4.9
	c0,0,0-2.7-1.6-3.5h1.6V4.9z M127.6,3.6c-1.6,0.2-2,2.4-2,2.4V1.8h11.7c0,0,0.2,0,0.2,0.1C137.9,2.8,129,3.4,127.6,3.6"></path>
                            <path fill="#dc3545" d="M175,16.8c-0.3,1.4-1.1,2.3-2.3,2.1c-1.1-0.2-1.8-1.3-1.4-3.7l0-0.2c0.4-0.5,1.3-1,2.2-0.9
	C174.9,14.4,175.2,15.5,175,16.8 M171.6,14.1c1-2.6,2.7-3.7,5.4-4.4l-0.1-0.7c-2.1,0.3-6,1.5-6.8,6.1c-0.3,1.9,0.3,4,2.4,4.4
	c2.1,0.4,3.5-1,3.8-2.9c0.3-1.5-0.3-3.1-2-3.4C173.1,13.2,172.1,13.5,171.6,14.1 M162,10.6c0.2-1.4,1-2.3,2.2-2.1
	c1.1,0.2,1.9,1.3,1.5,3.6l0,0.2c-0.4,0.5-1.3,1.1-2.2,1C162.1,13,161.8,11.9,162,10.6 M165.5,13.2c-0.9,2.6-2.6,3.8-5.3,4.5l0.2,0.7
	c2.1-0.4,5.9-1.7,6.6-6.3c0.3-2-0.4-4-2.5-4.3c-2.1-0.3-3.5,1.1-3.7,3c-0.2,1.5,0.4,3.1,2.2,3.3C164,14.2,165,13.8,165.5,13.2
	 M154.4,11c-1.4-0.9-1.7-1.6-1.6-2.4c0.1-0.9,0.8-1.5,1.8-1.4c1,0.1,1.5,0.9,1.4,1.9C155.9,9.9,155.3,10.5,154.4,11 M153.4,11.9
	c1.5,1,2.2,1.7,2.1,2.8c-0.1,1-0.9,1.6-2,1.5c-1.1-0.1-1.8-1-1.7-2.2C151.8,13,152.4,12.4,153.4,11.9 M152.9,11.5
	c-1.5,0.5-2.2,1.4-2.3,2.4c-0.2,1.6,0.9,2.7,2.7,2.9c1.8,0.2,3.2-0.8,3.4-2.4c0.1-1.1-0.3-2-1.8-3.1c1.3-0.6,1.9-1.3,2-2.3
	c0.2-1.4-0.6-2.4-2.3-2.6c-1.8-0.2-2.9,0.8-3.1,2.2C151.5,9.5,151.7,10.5,152.9,11.5 M95.6,14.8c0-0.5-0.4-0.8-1-0.8
	c-0.5,0-0.9,0.5-0.8,1c0,0.5,0.5,0.9,1,0.8C95.3,15.8,95.6,15.4,95.6,14.8 M89.7,16.1l-0.1-0.5c-0.8,0-1.3,0-1.4-0.2
	c-0.1-0.1-0.1-0.4-0.2-1l-0.8-7.7c1.7-0.2,2.2-0.1,2.5,0.1c0.3,0.2,0.4,0.7,0.7,1.6l0.5-0.1C91,7.6,90.9,6.5,90.8,6
	c-0.1-0.4-0.2-0.5-0.5-0.4l-7.2,0.7c-0.3,0-0.4,0.2-0.4,0.5c0,0.5,0,1.4,0.1,2.3l0.5,0c0.2-1.3,0.3-1.7,0.5-1.9
	c0.3-0.2,1-0.3,2.3-0.5l0.8,7.8c0.1,0.6,0.1,0.9,0,1c-0.1,0.2-0.4,0.3-1.3,0.5l0.1,0.5c0.6,0,1.7-0.2,2.1-0.2
	C88.1,16.2,89.2,16.1,89.7,16.1 M74.3,15l-0.6,0.1c0.1,0.4,0.2,1.3,0.4,1.8c0.1,0.5,0.3,0.6,0.7,0.7c0.7,0.2,1.5,0.2,2.2,0.1
	c2-0.3,3.2-1.6,2.9-3.3c-0.2-1.2-0.8-1.8-2.7-2.6l-0.9-0.4c-1.3-0.5-1.7-1-1.8-1.8c-0.1-1,0.6-1.7,1.7-1.9c0.9-0.1,1.4,0,1.7,0.4
	c0.2,0.2,0.4,0.7,0.7,1.4l0.6-0.1c-0.1-0.6-0.2-1.4-0.4-2C78.4,7,78.2,7,78.1,7c-0.5-0.1-1.1-0.1-1.8,0c-1.9,0.3-3.2,1.4-3,3.2
	c0.2,1.1,0.6,1.9,2.4,2.6l0.9,0.4c1.7,0.7,2,1.2,2.1,2c0.1,0.8-0.5,1.7-1.8,1.9c-0.7,0.1-1.4,0-1.9-0.4C74.9,16.4,74.6,15.9,74.3,15
	 M69.9,15.9l-0.5,0c-0.2,0.8-0.3,1.5-0.5,1.7c-0.2,0.3-0.6,0.5-2,0.8c-0.3,0.1-0.8,0.1-1.2,0.1c-0.3,0-0.5-0.1-0.5-0.6l-0.6-3.5
	l0.1,0c1.5-0.3,2-0.3,2.3-0.1c0.2,0.1,0.3,0.4,0.5,1l0.5-0.1c-0.1-0.6-0.3-1.5-0.3-1.7c-0.1-0.4-0.2-1.2-0.3-1.6l-0.6,0.1
	c0,0.5,0,0.9-0.1,1.1c-0.2,0.3-0.6,0.4-2.2,0.7l-0.1,0l-0.7-3.8c0.4-0.1,0.8-0.2,1.2-0.3c1.2-0.2,1.7-0.3,2-0.1
	c0.2,0.1,0.5,0.6,0.8,1.4l0.5-0.1c-0.1-0.4-0.3-1.4-0.4-2c-0.1-0.3-0.2-0.4-1-0.3l-5.8,1l0.1,0.6c0.8-0.1,1.1-0.1,1.3,0.1
	c0.1,0.1,0.2,0.4,0.2,0.8l1.2,6.7c0.1,0.6,0.1,0.8,0,1c-0.1,0.2-0.5,0.3-1.2,0.5l0.1,0.6l6.1-1.1c0.6-0.1,0.8-0.2,0.9-0.6
	C70,17.6,70,16.5,69.9,15.9 M146,15.9l0-0.6c-0.9-0.1-1.2-0.3-1.3-0.4c-0.1-0.1-0.1-0.4,0-0.9l0.3-4.3c0.1-1.6,0.2-2.8,0.4-3.9
	l-0.3-0.2c-0.9,0.4-2,0.8-2.8,1.1l0.1,0.5c0.4-0.1,0.7-0.1,1.1-0.1c0.2,0,0.3,0.2,0.3,0.5c0,0.4,0,1.4-0.1,2l-0.3,4.3
	c0,0.5-0.1,0.8-0.2,0.9c-0.1,0.1-0.5,0.2-1.3,0.2l0,0.6c0.6,0,1.7,0.1,2.1,0.1C144.4,15.8,145.4,15.9,146,15.9"></path>
                            <rect x="22.6" y="96" fill="#FFF4DB" width="192.3" height="1.6"></rect>
                            <rect fill="none" width="237.5" height="115.1"></rect>
                        </svg>